<?xml version="1.0" encoding="utf-8"?>
<!-- Generator: Adobe Illustrator 28.2.0, SVG Export Plug-In . SVG Version: 6.00 Build 0)  -->
<svg version="1.1" id="Ebene_1" xmlns="http://www.w3.org/2000/svg" xmlns:xlink="http://www.w3.org/1999/xlink" x="0px" y="0px"
	 viewBox="0 0 253 150" style="enable-background:new 0 0 253 150;" xml:space="preserve">
<style type="text/css">
	.st0{fill:#6E6E6E;}
	.st1{fill:#332C22;}
	.st2{fill:none;}
</style>
<g>
	<path d="M130.2,80.3v7l-5.9,1.3v39.6c0,4.2-0.8,7.9-2.6,11.1c-1.7,3.1-4.2,5.5-7.4,7.2c-3.3,1.7-7.2,2.6-11.7,2.6
		c-2.4,0-5.1-0.3-8-0.9c-2.9-0.7-5.5-1.6-7.7-2.7l2.3-8.3c1.9,0.9,4.1,1.6,6.4,2.1c2.3,0.6,4.5,0.8,6.6,0.8c3.7,0,6.5-1.1,8.2-3.1
		c1.7-2.1,2.6-5,2.6-8.7v-3.8c-1.5,1.9-3.3,3.4-5.4,4.4c-2.1,1-4.4,1.5-7.2,1.5c-3.3,0-6.3-0.7-8.8-2.1l3.2-11.7
		c0.2,0.3,0.3,0.6,0.5,0.8c1.7,2.7,4.5,4,8.2,4c2.2,0,4.1-0.4,5.6-1.4s2.8-2.3,3.8-4.1V94c-1-1.7-2.3-3.1-3.8-4.1
		c-1.6-1-3.4-1.5-5.6-1.5c-0.4,0-0.8,0-1.2,0.1l2.3-8.6c1.2,0.3,2.3,0.7,3.4,1.3c2.2,1.2,4.1,2.9,5.6,5.2l0.8-6.2L130.2,80.3
		L130.2,80.3z"/>
	<path d="M174.1,108v-6.5c0-4.6-0.8-8.5-2.3-11.8c-1.6-3.3-3.8-5.8-6.8-7.6c-3-1.8-6.7-2.7-11.2-2.7c-4.2,0-7.9,1.1-11.1,3.2
		c-3.3,2.1-5.8,5.1-7.7,8.8c-1.8,3.7-2.8,7.9-2.8,12.7v1.9c0,4.7,0.9,8.9,2.8,12.5c1.9,3.7,4.6,6.5,7.9,8.6
		c3.4,2.1,7.4,3.1,12.1,3.1c4,0,7.4-0.6,10.4-1.7c3-1.1,5.4-2.5,7.4-4.1l-3.6-7.2c-1.8,1.3-3.8,2.3-6,3.1c-2.2,0.7-4.6,1.1-7.2,1.1
		c-2.6,0-4.7-0.6-6.4-1.7s-3.1-2.7-4.1-4.7c-0.9-2-1.5-4.3-1.6-6.8l0.1-0.2L174.1,108L174.1,108z M145.8,93.8
		c0.8-1.8,1.9-3.2,3.3-4.2c1.4-1,3-1.6,4.8-1.6c2.1,0,3.8,0.4,5.2,1.3c1.4,0.9,2.4,2.2,3.1,3.8c0.7,1.6,0.9,3.5,0.9,5.6v1.2h-18.9
		l-0.1-0.2C144.4,97.5,145,95.5,145.8,93.8z"/>
	<path d="M201.9,130.2c-4.7,0-8.7-1.1-12.1-3.2c-3.4-2.1-5.9-5.1-7.8-8.8c-1.8-3.8-2.7-8.1-2.7-12.9v-0.9c0-4.8,0.9-9.2,2.7-12.9
		s4.4-6.7,7.8-8.8c3.4-2.2,7.4-3.2,12-3.2c4.7,0,8.7,1.1,12.1,3.2c3.4,2.1,5.9,5.1,7.8,8.8c1.8,3.7,2.7,8.1,2.7,12.9v0.9
		c0,4.9-0.9,9.2-2.7,12.9c-1.8,3.8-4.4,6.7-7.8,8.8C210.6,129.2,206.6,130.2,201.9,130.2z M201.9,121.4c2.6,0,4.6-0.7,6.3-2.1
		c1.7-1.4,2.9-3.3,3.7-5.7c0.8-2.4,1.2-5.2,1.2-8.4v-0.9c0-3.1-0.4-5.9-1.2-8.3c-0.8-2.4-2.1-4.3-3.7-5.7c-1.7-1.4-3.8-2.1-6.3-2.1
		c-2.5,0-4.6,0.7-6.2,2.1c-1.7,1.4-2.9,3.3-3.7,5.7c-0.8,2.4-1.2,5.2-1.2,8.3v0.9c0,3.2,0.4,5.9,1.2,8.4c0.8,2.4,2.1,4.3,3.7,5.7
		C197.3,120.8,199.4,121.4,201.9,121.4z"/>
	<path d="M226.8,129.3v-6.9l6.8-1.3V67.2l-7.2-1.3v-7H245v62.2l6.8,1.3v6.9L226.8,129.3L226.8,129.3z"/>
	<path class="st0" d="M30.6,54.4c0-1.9-0.8-3.4-2.4-4.5c-1.6-1-4.3-1.9-8-2.7s-6.8-1.8-9.3-3c-5.5-2.7-8.2-6.5-8.2-11.5
		c0-4.2,1.8-7.7,5.3-10.6s8.1-4.2,13.6-4.2c5.8,0,10.6,1.4,14.2,4.3s5.4,6.7,5.4,11.3h-11c0-2.1-0.8-3.9-2.3-5.3s-3.7-2.1-6.2-2.1
		c-2.4,0-4.4,0.6-5.9,1.7s-2.3,2.6-2.3,4.5c0,1.7,0.7,3,2.1,3.9c1.4,0.9,4.3,1.9,8.6,2.8s7.7,2.1,10.2,3.4c2.4,1.3,4.3,2.9,5.4,4.7
		c1.2,1.8,1.8,4.1,1.8,6.7c0,4.4-1.8,7.9-5.4,10.7c-3.7,2.7-8.4,4.1-14.3,4.1c-4,0-7.6-0.7-10.7-2.2C7.8,65,5.4,63,3.6,60.5
		C1.9,57.9,1,55.2,1,52.3h10.7c0.2,2.6,1.1,4.6,2.9,6s4.2,2.1,7.2,2.1c2.9,0,5.1-0.6,6.6-1.7C29.9,57.6,30.6,56.2,30.6,54.4z"/>
	<path class="st1" d="M96.6,67.7L96.6,67.7"/>
	<polygon class="st0" points="110,18.8 96.6,67.7 87.6,67.7 77.1,34.1 66.8,67.7 57.8,67.7 44.4,18.8 55.1,18.8 63,52.2 73.1,18.8 
		81.3,18.8 91.5,52.5 99.3,18.8 	"/>
	<path class="st0" d="M132.4,22.2c-2.9-2.3-6.6-3.7-10.9-4.2l-2.2,8.1c2.1,0.2,3.8,0.8,5.2,2.1c1.6,1.4,2.3,3.2,2.3,5.3h11
		C137.8,28.8,136,25.1,132.4,22.2z M136.4,47.1c-1.2-1.8-3-3.4-5.4-4.7c-2.4-1.3-5.8-2.4-10.2-3.4c-1.8-0.4-3.3-0.8-4.7-1.2
		l-2.3,8.7c1,0.3,2.1,0.5,3.2,0.7c3.7,0.8,6.4,1.7,8,2.7c1.6,1,2.4,2.5,2.4,4.4c0,1.8-0.8,3.2-2.3,4.3c-1.5,1.1-3.7,1.7-6.6,1.7
		c-3,0-5.4-0.7-7.2-2.1c-0.2-0.2-0.4-0.3-0.6-0.5l-2.4,8.9c3,1.3,6.3,1.9,10.1,1.9c5.9,0,10.7-1.4,14.3-4.1
		c3.7-2.7,5.5-6.3,5.5-10.7C138.2,51.2,137.6,48.9,136.4,47.1z"/>
	<path class="st0" d="M173.4,54.4c0-1.9-0.8-3.4-2.4-4.5c-1.6-1-4.3-1.9-8-2.7c-3.7-0.8-6.8-1.8-9.3-3c-5.5-2.7-8.2-6.5-8.2-11.5
		c0-4.2,1.8-7.7,5.3-10.6s8.1-4.2,13.6-4.2c5.8,0,10.6,1.4,14.2,4.3s5.4,6.7,5.4,11.3h-11c0-2.1-0.8-3.9-2.3-5.3s-3.7-2.1-6.2-2.1
		c-2.4,0-4.4,0.6-5.9,1.7c-1.5,1.1-2.3,2.6-2.3,4.5c0,1.7,0.7,3,2.1,3.9c1.4,0.9,4.3,1.9,8.6,2.8c4.3,0.9,7.7,2.1,10.2,3.4
		c2.4,1.3,4.3,2.9,5.4,4.7c1.2,1.8,1.8,4.1,1.8,6.7c0,4.4-1.8,7.9-5.4,10.7c-3.7,2.7-8.4,4.1-14.3,4.1c-4,0-7.6-0.7-10.7-2.2
		c-3.1-1.4-5.6-3.4-7.3-5.9c-1.7-2.6-2.6-5.3-2.6-8.2h10.7c0.2,2.6,1.1,4.6,2.9,6c1.8,1.4,4.2,2.1,7.2,2.1c2.9,0,5.1-0.6,6.6-1.7
		C172.7,57.6,173.4,56.2,173.4,54.4z"/>
	<line class="st2" x1="96.7" y1="67.7" x2="96.6" y2="67.7"/>
	<polygon points="126.2,1 123.2,11.8 111.8,11.8 114.8,1 	"/>
</g>
</svg>
